<svg xmlns="http://www.w3.org/2000/svg" viewBox="0 0 120 128"><defs><style>.cls-1{fill:#ccc;}.cls-2{fill:#999;}</style></defs><title>Asset 1</title><g id="Layer_2" data-name="Layer 2"><g id="Layer_1-2" data-name="Layer 1"><path class="cls-1" d="M60,40c-16.82,0-30.5-8.75-30.5-19.5S43.18,1,60,1,90.5,9.75,90.5,20.5,76.82,40,60,40ZM53.39,2.73a9,9,0,0,0-5.58,1.76c-2.74,2.08-4,5.72-3.58,10.24A27.19,27.19,0,0,0,49.9,28.19c4.66,6.13,11.22,10.08,16.71,10.08a9,9,0,0,0,5.58-1.76c2.74-2.08,4-5.72,3.58-10.24A27.19,27.19,0,0,0,70.1,12.81C65.44,6.68,58.88,2.73,53.39,2.73Z" transform="translate(0 -0.5)"/><path class="cls-2" d="M60,1.5c16.54,0,30,8.52,30,19s-13.46,19-30,19S30,31,30,20.5s13.46-19,30-19m6.61,37.27a9.48,9.48,0,0,0,5.89-1.86c2.87-2.19,4.21-6,3.76-10.69A27.7,27.7,0,0,0,70.5,12.5C65.67,6.16,59.12,2.23,53.39,2.23A9.48,9.48,0,0,0,47.5,4.09c-2.87,2.19-4.21,6-3.76,10.69A27.7,27.7,0,0,0,49.5,28.5c4.83,6.34,11.38,10.27,17.11,10.27M60,.5c-17.12,0-31,9-31,20s13.88,20,31,20,31-8.95,31-20S77.12.5,60,.5Zm6.61,37.27c-5.2,0-11.57-3.65-16.31-9.88-6.57-8.62-7.55-18.92-2.19-23a8.54,8.54,0,0,1,5.28-1.66c5.2,0,11.57,3.65,16.31,9.88,6.57,8.62,7.55,18.92,2.19,23a8.54,8.54,0,0,1-5.28,1.66Z" transform="translate(0 -0.5)"/><path class="cls-1" d="M60,84c-16.82,0-30.5-8.75-30.5-19.5S43.18,45,60,45s30.5,8.75,30.5,19.5S76.82,84,60,84ZM53.39,46.73a9,9,0,0,0-5.58,1.76c-2.74,2.08-4,5.72-3.58,10.24A27.19,27.19,0,0,0,49.9,72.19c4.66,6.13,11.22,10.08,16.71,10.08a9,9,0,0,0,5.58-1.76c2.74-2.08,4-5.72,3.58-10.24A27.19,27.19,0,0,0,70.1,56.81C65.44,50.68,58.88,46.73,53.39,46.73Z" transform="translate(0 -0.5)"/><path class="cls-2" d="M60,45.5c16.54,0,30,8.52,30,19s-13.46,19-30,19S30,75,30,64.5s13.46-19,30-19m6.61,37.27a9.48,9.48,0,0,0,5.89-1.86c2.87-2.19,4.21-6,3.76-10.69A27.7,27.7,0,0,0,70.5,56.5c-4.83-6.34-11.38-10.27-17.11-10.27a9.48,9.48,0,0,0-5.89,1.86c-2.87,2.19-4.21,6-3.76,10.69A27.7,27.7,0,0,0,49.5,72.5c4.83,6.34,11.38,10.27,17.11,10.27M60,44.5c-17.12,0-31,9-31,20s13.88,20,31,20,31-9,31-20-13.88-20-31-20Zm6.61,37.27c-5.2,0-11.57-3.65-16.31-9.88-6.57-8.62-7.55-18.92-2.19-23a8.54,8.54,0,0,1,5.28-1.66c5.2,0,11.57,3.65,16.31,9.88,6.57,8.62,7.55,18.92,2.19,23a8.54,8.54,0,0,1-5.28,1.66Z" transform="translate(0 -0.5)"/><path class="cls-1" d="M60,128c-16.82,0-30.5-8.75-30.5-19.5S43.18,89,60,89s30.5,8.75,30.5,19.5S76.82,128,60,128ZM53.39,90.73a9,9,0,0,0-5.58,1.76c-2.74,2.08-4,5.72-3.58,10.24a27.19,27.19,0,0,0,5.67,13.46c4.66,6.13,11.22,10.08,16.71,10.08a9,9,0,0,0,5.58-1.76c2.74-2.08,4-5.72,3.58-10.24a27.19,27.19,0,0,0-5.67-13.46C65.44,94.68,58.88,90.73,53.39,90.73Z" transform="translate(0 -0.5)"/><path class="cls-2" d="M60,89.5c16.54,0,30,8.52,30,19s-13.46,19-30,19-30-8.52-30-19,13.46-19,30-19m6.61,37.27a9.48,9.48,0,0,0,5.89-1.86c2.87-2.19,4.21-6,3.76-10.69A27.7,27.7,0,0,0,70.5,100.5c-4.83-6.34-11.38-10.27-17.11-10.27a9.48,9.48,0,0,0-5.89,1.86c-2.87,2.19-4.21,6-3.76,10.69A27.7,27.7,0,0,0,49.5,116.5c4.83,6.34,11.38,10.27,17.11,10.27M60,88.5c-17.12,0-31,9-31,20s13.88,20,31,20,31-9,31-20-13.88-20-31-20Zm6.61,37.27c-5.2,0-11.57-3.65-16.31-9.88-6.57-8.62-7.55-18.92-2.19-23a8.54,8.54,0,0,1,5.28-1.66c5.2,0,11.57,3.65,16.31,9.88,6.57,8.62,7.55,18.92,2.19,23a8.54,8.54,0,0,1-5.28,1.66Z" transform="translate(0 -0.5)"/><path class="cls-1" d="M2.5,66.5a2,2,0,0,1-2-2v-44a2,2,0,0,1,2-2h20a2,2,0,0,1,0,4H4.5v40h18a2,2,0,0,1,0,4Z" transform="translate(0 -0.5)"/><path class="cls-2" d="M22.5,19a1.5,1.5,0,0,1,0,3H4V63H22.5a1.5,1.5,0,0,1,0,3H2.5A1.5,1.5,0,0,1,1,64.5v-44A1.5,1.5,0,0,1,2.5,19h20m0-1H2.5A2.5,2.5,0,0,0,0,20.5v44A2.5,2.5,0,0,0,2.5,67h20a2.5,2.5,0,0,0,0-5H5V23H22.5a2.5,2.5,0,0,0,0-5Z" transform="translate(0 -0.5)"/><path class="cls-1" d="M97.5,110.5a2,2,0,0,1,0-4h18v-40h-18a2,2,0,0,1,0-4h20a2,2,0,0,1,2,2v44a2,2,0,0,1-2,2Z" transform="translate(0 -0.5)"/><path class="cls-2" d="M117.5,63a1.5,1.5,0,0,1,1.5,1.5v44a1.5,1.5,0,0,1-1.5,1.5h-20a1.5,1.5,0,0,1,0-3H116V66H97.5a1.5,1.5,0,0,1,0-3h20m0-1h-20a2.5,2.5,0,0,0,0,5H115v39H97.5a2.5,2.5,0,0,0,0,5h20a2.5,2.5,0,0,0,2.5-2.5v-44a2.5,2.5,0,0,0-2.5-2.5Z" transform="translate(0 -0.5)"/></g></g></svg>